# xmcd CD database file
#
# Track frame offsets:
#	150
#	5170
#	18777
#	31177
#	41977
#	64567
#	73352
#	91742
#	102305
#	119100
#
# Disc length: 1782 seconds
#
# Revision: 4
# Processed by: cddbd v1.5.2PL0 Copyright (c) Steve Scherf et al.
# Submitted via: CDex 1.51
#
DISCID=8606f40a
DTITLE=Twenty Miles - R.L. Boyce Othar Turner Fife and Drum Spam
DYEAR=1997
DGENRE=Blues Rock
TTITLE0=Intro
TTITLE1=Junkyard
TTITLE2=Place Called Hell
TTITLE3=She Don't Know
TTITLE4=Piece Of Clay
TTITLE5=My Back Door
TTITLE6=I'm Not A Man
TTITLE7=Come Right In
TTITLE8=My Little Baby
TTITLE9=Mississippi Bolero
EXTD=YEAR: 1997
EXTT0=
EXTT1=
EXTT2=
EXTT3=
EXTT4=
EXTT5=
EXTT6=
EXTT7=
EXTT8=
EXTT9=
PLAYORDER=
